<svg width="256" height="256" viewBox="0 0 256 256" fill="none" xmlns="http://www.w3.org/2000/svg">
<rect width="256" height="256" rx="16" fill="white"/>
<rect width="256" height="256" rx="16" fill="#1F80C0"/>
<g filter="url(#filter0_d_7_734)">
<path d="M209.185 156.444C225.457 156.444 236.893 167.954 234.3 184.94C231.941 200.361 219.443 211.2 199.871 211.2H189.023L184.661 234.667H163.556L178.058 156.444H209.185ZM213.312 183.822C214.373 178.682 211.308 175.553 205.648 175.553H195.626L192.561 192.203H202.818C208.242 192.203 212.369 188.962 213.312 183.822Z" fill="white" fill-opacity="0.6" shape-rendering="crispEdges"/>
</g>
<g filter="url(#filter1_d_7_734)">
<path d="M173.253 127.704L159.927 116.85C160.116 115.203 160.116 113.54 159.927 111.894L150.876 50.8468C150.439 47.9309 148.883 45.2989 146.536 43.5074C144.19 41.716 141.238 40.9055 138.304 41.2475C136.77 41.4543 135.293 41.9648 133.959 42.7489C132.625 43.533 131.462 44.5751 130.537 45.8139C129.612 47.0528 128.944 48.4635 128.572 49.9634C128.201 51.4633 128.133 53.0221 128.372 54.5485L131.641 77.6372C131.701 77.9768 131.648 78.3269 131.489 78.6331C131.33 78.9393 131.074 79.1847 130.761 79.3312C130.444 79.4882 130.086 79.5424 129.736 79.4861C129.387 79.4299 129.064 79.266 128.813 79.0175L84.4346 32.3383C82.5681 30.2734 80.0306 28.9331 77.2703 28.5543C74.5099 28.1755 71.7042 28.7824 69.3486 30.2678C67.9735 31.1969 66.8174 32.4136 65.9608 33.8335C65.1042 35.2534 64.5675 36.8424 64.3881 38.4902C64.2086 40.1379 64.3907 41.8049 64.9217 43.3754C65.4527 44.9458 66.3198 46.382 67.4629 47.5843L89.9661 71.1749C90.3208 71.4699 90.6089 71.8366 90.8113 72.2508C91.0137 72.665 91.126 73.1174 91.1406 73.578C91.1552 74.0386 91.0718 74.4971 90.896 74.9233C90.7202 75.3495 90.456 75.7336 90.1207 76.0504C89.7854 76.3673 89.3866 76.6096 88.9507 76.7615C88.5147 76.9133 88.0515 76.9713 87.5915 76.9315C87.1315 76.8917 86.6851 76.7551 86.2818 76.5307C85.8786 76.3063 85.5275 75.9991 85.2518 75.6295L47.5368 35.9772C47.2986 35.7507 47.0015 35.5953 46.6793 35.5288C46.3571 35.4622 46.0226 35.4872 45.7139 35.6008C44.4686 36.1614 43.3389 36.9486 42.3824 37.9222C40.2328 40.0947 39.0273 43.0251 39.0273 46.0785C39.0273 49.1319 40.2328 52.0624 42.3824 54.2348L71.5487 84.7896C73.8227 83.5897 76.3241 82.8803 78.8905 82.7073C81.4569 82.5344 84.0311 82.9018 86.4461 83.7858L123.784 97.5888C126.653 98.6696 129.202 100.456 131.196 102.781C133.19 105.107 134.564 107.897 135.191 110.893C135.818 113.889 135.677 116.995 134.782 119.923C133.887 122.85 132.266 125.505 130.07 127.642L109.075 148.283C112.342 148.721 115.342 150.319 117.524 152.785C119.706 155.251 120.924 158.42 120.955 161.71C120.986 162.211 120.986 162.714 120.955 163.216L136.984 176.768C137.326 177.051 137.722 177.262 138.148 177.388C138.574 177.513 139.022 177.551 139.463 177.498C139.904 177.445 140.33 177.303 140.714 177.081C141.099 176.858 141.434 176.559 141.698 176.203L173.756 132.284C174.032 131.954 174.238 131.571 174.363 131.16C174.487 130.748 174.527 130.315 174.48 129.888C174.433 129.46 174.3 129.047 174.089 128.671C173.879 128.296 173.594 127.967 173.253 127.704Z" fill="white"/>
<path d="M36.7843 91.0656C36.5502 90.8119 36.2416 90.6389 35.9028 90.5712C35.564 90.5036 35.2124 90.5449 34.8986 90.6892C33.2721 91.5115 31.8583 92.6984 30.7678 94.1569C29.6773 95.6154 28.9397 97.306 28.6128 99.0964C28.3088 100.864 28.4173 102.678 28.9296 104.397C29.442 106.117 30.3445 107.695 31.5671 109.009L38.4187 116.162L50.0474 104.743L36.7843 91.0656Z" fill="white"/>
<path d="M39.8006 61.1363C39.5766 60.8879 39.2789 60.7174 38.951 60.6497C38.6231 60.582 38.2821 60.6206 37.9777 60.7599C36.3049 61.508 34.8367 62.6464 33.6968 64.0791C32.5568 65.5119 31.7785 67.1971 31.4273 68.9928C31.0761 70.7885 31.1623 72.6422 31.6788 74.3977C32.1952 76.1532 33.1267 77.7591 34.3948 79.0802L54.698 100.349L66.3268 88.9305L39.8006 61.1363Z" fill="white"/>
<path d="M111.709 161.836C111.698 160.794 111.299 159.794 110.591 159.029C109.882 158.263 108.915 157.788 107.875 157.695L97.3148 158.573C96.3478 158.655 95.3795 158.433 94.5454 157.938C93.7113 157.443 93.0532 156.7 92.6633 155.813C92.26 154.933 92.1342 153.952 92.3026 153C92.471 152.047 92.9256 151.168 93.6061 150.48L123.59 121.054C124.673 120.038 125.469 118.755 125.899 117.335C126.33 115.914 126.378 114.406 126.041 112.961C125.724 111.534 125.051 110.21 124.084 109.113C123.117 108.016 121.887 107.182 120.509 106.687L83.1717 92.7582C82.1867 92.389 81.1438 92.1978 80.0916 92.1935C77.7487 92.1804 75.4933 93.0809 73.8058 94.7031L39.3595 128.709C37.2841 130.762 35.6368 133.205 34.5126 135.897C33.3884 138.589 32.8096 141.477 32.8096 144.394C32.8096 147.311 33.3884 150.198 34.5126 152.89C35.6368 155.583 37.2841 158.026 39.3595 160.079L50.6111 171.31C53.2592 173.928 56.5206 175.845 60.0992 176.886C63.6778 177.927 67.4602 178.059 71.1029 177.27C85.246 173.882 105.486 166.855 107.938 166.353H108.566C109.553 166.115 110.418 165.523 110.998 164.691C111.577 163.858 111.83 162.842 111.709 161.836Z" fill="white"/>
</g>
<defs>
<filter id="filter0_d_7_734" x="149.556" y="150.444" width="91.1113" height="98.2222" filterUnits="userSpaceOnUse" color-interpolation-filters="sRGB">
<feFlood flood-opacity="0" result="BackgroundImageFix"/>
<feColorMatrix in="SourceAlpha" type="matrix" values="0 0 0 0 0 0 0 0 0 0 0 0 0 0 0 0 0 0 127 0" result="hardAlpha"/>
<feOffset dx="-4" dy="4"/>
<feGaussianBlur stdDeviation="5"/>
<feComposite in2="hardAlpha" operator="out"/>
<feColorMatrix type="matrix" values="0 0 0 0 0.025295 0 0 0 0 0.219869 0 0 0 0 0.348248 0 0 0 0.15 0"/>
<feBlend mode="normal" in2="BackgroundImageFix" result="effect1_dropShadow_7_734"/>
<feBlend mode="normal" in="SourceGraphic" in2="effect1_dropShadow_7_734" result="shape"/>
</filter>
<filter id="filter1_d_7_734" x="18.4443" y="22.4443" width="166.055" height="169.333" filterUnits="userSpaceOnUse" color-interpolation-filters="sRGB">
<feFlood flood-opacity="0" result="BackgroundImageFix"/>
<feColorMatrix in="SourceAlpha" type="matrix" values="0 0 0 0 0 0 0 0 0 0 0 0 0 0 0 0 0 0 127 0" result="hardAlpha"/>
<feOffset dy="4"/>
<feGaussianBlur stdDeviation="5"/>
<feComposite in2="hardAlpha" operator="out"/>
<feColorMatrix type="matrix" values="0 0 0 0 0.0235294 0 0 0 0 0.219608 0 0 0 0 0.34902 0 0 0 0.1 0"/>
<feBlend mode="normal" in2="BackgroundImageFix" result="effect1_dropShadow_7_734"/>
<feBlend mode="normal" in="SourceGraphic" in2="effect1_dropShadow_7_734" result="shape"/>
</filter>
</defs>
</svg>
